<?xml version="1.0" encoding="UTF-8" standalone="no"?>
<!-- Created with Inkscape (http://www.inkscape.org/) -->

<svg
   width="226.25023"
   height="267.6521"
   viewBox="0 0 226.25023 267.6521"
   version="1.1"
   id="svg1"
   xml:space="preserve"
   xmlns:inkscape="http://www.inkscape.org/namespaces/inkscape"
   xmlns:sodipodi="http://sodipodi.sourceforge.net/DTD/sodipodi-0.dtd"
   xmlns="http://www.w3.org/2000/svg"
   xmlns:svg="http://www.w3.org/2000/svg"><sodipodi:namedview
     id="namedview1"
     pagecolor="#505050"
     bordercolor="#eeeeee"
     borderopacity="1"
     inkscape:showpageshadow="0"
     inkscape:pageopacity="0"
     inkscape:pagecheckerboard="0"
     inkscape:deskcolor="#505050"
     inkscape:document-units="px" /><defs
     id="defs1" /><g
     inkscape:label="Layer 1"
     inkscape:groupmode="layer"
     id="layer1"
     transform="translate(-779.44147,-619.65147)"><g
       id="g5"><path
         style="fill:#0000ff"
         d="m 903.17463,876.55357 -5.5328,-9.75 34.8521,-0.5 c 33.2254,-0.47666 34.981,-0.59624 37.6118,-2.56179 5.1059,-3.81476 6.8117,-7.05489 6.8117,-12.93821 0,-5.88195 -1.7045,-9.12082 -6.8091,-12.93821 -2.5306,-1.89242 -4.5381,-2.10286 -24.4382,-2.56179 -20.8867,-0.48168 -21.89,-0.59785 -27.3777,-3.17018 -7.2734,-3.40933 -14.233,-10.37295 -17.623,-17.63332 -2.3078,-4.94249 -2.6545,-6.95395 -2.6187,-15.1965 0.035,-8.06486 0.4303,-10.33087 2.6172,-15 3.7992,-8.11149 8.9337,-13.43763 16.5887,-17.208 l 6.6837,-3.292 36.2743,-0.30705 c 19.9508,-0.16888 36.2743,-0.0623 36.2743,0.23677 0,0.29911 -2.1146,4.80064 -4.6991,10.0034 l -4.699,9.45957 -29.7298,0.30366 c -28.3473,0.28953 -29.8609,0.40093 -32.5509,2.3956 -9.8164,7.27892 -9.8155,19.54143 0,26.8161 2.6097,1.93379 4.4999,2.12975 25,2.59195 20.8196,0.4694 22.4523,0.6439 26.6769,2.85135 8.296,4.33488 12.7033,8.76939 16.648,16.75096 3.345,6.76821 3.7151,8.30313 3.6678,15.21271 -0.088,12.84283 -4.8213,22.71533 -14.1875,29.59075 -8.7186,6.40008 -10.0036,6.59423 -43.6448,6.59423 h -30.265 z"
         id="path5" /><path
         style="fill:#0000ff"
         d="m 979.2798,733.78024 c -2.48052,-4.93901 -4.51004,-9.45423 -4.51004,-10.03383 0,-0.69062 3.70109,-0.95599 10.73871,-0.76998 l 10.7387,0.28383 1.46154,3 c 0.80385,1.65 2.92889,6.0375 4.72219,9.75 l 3.2608,6.75 h -10.95096 -10.95091 z"
         id="path4" /><path
         style="fill:#0000ff"
         d="m 889.69494,736.51026 c 1.56285,-3.4375 9.1071,-19.075 16.765,-34.75 7.65791,-15.675 19.73934,-40.56198 26.84764,-55.30439 l 12.92417,-26.8044 2.78119,5.8044 c 1.52966,3.19241 10.42571,21.49387 19.76901,40.66989 9.3433,19.17603 16.98781,35.03853 16.98781,35.25 0,0.21148 -4.95983,0.3845 -11.02186,0.3845 h -11.02185 l -8.73224,-18.15001 -8.73223,-18.15001 -7.43842,15.40001 c -4.09112,8.47001 -12.5101,25.86251 -18.70883,38.65001 l -11.27042,23.25 h -10.99525 -10.99525 z"
         id="path3" /><path
         style="fill:#0000ff"
         d="m 843.86143,877.05357 c -3.1573,-5.6375 -9.1796,-16.325 -13.383,-23.75 -12.1353,-21.43622 -14.9895,-26.75121 -14.9895,-27.91248 0,-0.71769 3.7543,-1.08752 11.0398,-1.08752 15.049,0 19.4324,-2.20571 23.8832,-12.01798 2.6629,-5.87057 2.5835,-10.36187 -0.2911,-16.48202 -4.996,-10.63674 -7.698,-11.5 -35.9943,-11.5 h -22.42665 l -5.60549,-9.90012 c -3.08303,-5.44507 -5.6055,-10.18824 -5.6055,-10.54038 0,-0.35214 14.0625,-0.50959 31.25004,-0.34988 l 31.25,0.29038 5.7526,2.69589 c 8.0476,3.77136 16.1042,11.70734 20.0304,19.73045 3.055,6.24276 3.217,7.15253 3.217,18.07366 0,10.90512 -0.1651,11.83624 -3.1902,18 -3.5828,7.30002 -9.3427,13.77194 -15.8754,17.838 l -4.3896,2.73216 11.9663,21.46492 c 6.5814,11.80571 11.9713,21.80242 11.9776,22.21492 0.01,0.4125 -5.1383,0.75 -11.4322,0.75 h -11.4434 z"
         id="path2" /><path
         style="fill:#0000ff"
         d="m 779.46302,743.12019 c -0.35204,-0.35204 3.65129,-5.00964 8.8963,-10.35021 l 9.53637,-9.71012 16.2462,-0.96821 c 13.34487,-0.79531 17.05276,-1.35866 20.76261,-3.15457 14.56196,-7.04932 25.02778,-24.73921 23.60621,-39.90044 -1.10465,-11.78111 -7.56109,-23.8503 -16.32453,-30.51584 -7.58851,-5.77188 -12.00842,-6.95154 -28.64715,-7.64585 l -14.73073,-0.61469 -9.51927,-9.48025 c -5.2356,-5.21414 -9.51927,-9.85976 -9.51927,-10.32361 0,-0.46385 11.8125,-0.67316 26.25,-0.46512 23.6364,0.3406 26.80921,0.5869 31.8665,2.47383 18.82678,7.02445 34.44377,24.38162 39.36847,43.75525 0.84164,3.31099 1.51503,10.2885 1.51503,15.69838 0,28.35172 -19.02792,52.81535 -46.55618,59.85589 -6.59891,1.68772 -11.09053,1.98563 -29.93712,1.98563 -12.19535,0 -22.4614,-0.28803 -22.81344,-0.64007 z"
         id="path1" /></g></g></svg>
